<?xml version="1.0" encoding="UTF-8" standalone="no"?>
<!-- Generated by graphviz version 12.1.2 (0)
 -->

<!-- Title: G Pages: 1 -->

<svg
   width="273.04211pt"
   height="106.38971pt"
   viewBox="72 72 220.2 73.979004"
   version="1.1"
   id="svg13"
   xmlns="http://www.w3.org/2000/svg"
   xmlns:svg="http://www.w3.org/2000/svg">
  <defs
     id="defs13" />
  <g
     id="graph0"
     class="graph"
     transform="translate(72.5,151.3895)">
    <title
       id="title1">G</title>
    <!-- p1 -->
    <g
       id="node1"
       class="node">
      <title
         id="title2">p1</title>
      <circle
         fill="none"
         stroke="#000000"
         cx="10.8"
         cy="-38.400002"
         id="ellipse2"
         r="10.8" />
      <text
         text-anchor="middle"
         x="10.8"
         y="-31.4"
         font-family="Times, serif"
         font-size="20px"
         id="text2">P1</text>
    </g>
    <!-- t1 -->
    <g
       id="node3"
       class="node">
      <title
         id="title3">t1</title>
      <polygon
         fill="none"
         stroke="#000000"
         points="57.6,-24 91.6,-24 91.6,-52.8 57.6,-52.8 "
         id="polygon3" />
      <text
         text-anchor="middle"
         x="74.599998"
         y="-33.73"
         font-family="Times, serif"
         font-size="14px"
         id="text3">T1</text>
    </g>
    <!-- p1&#45;&gt;t1 -->
    <g
       id="edge1"
       class="edge">
      <title
         id="title4">p1-&gt;t1</title>
      <path
         fill="none"
         stroke="#000000"
         d="m 22.01,-38.4 c 6.59,0 15.52,0 24.1,0"
         id="path4" />
      <polygon
         fill="#000000"
         stroke="#000000"
         points="45.82,-41.9 55.82,-38.4 45.82,-34.9 "
         id="polygon4" />
    </g>
    <!-- p2 -->
    <g
       id="node2"
       class="node">
      <title
         id="title5">p2</title>
      <circle
         fill="none"
         stroke="#000000"
         cx="138.39999"
         cy="-38.400002"
         id="ellipse5"
         r="10.8" />
      <text
         text-anchor="middle"
         x="138.39999"
         y="-31.4"
         font-family="Times, serif"
         font-size="20px"
         id="text5">P2</text>
    </g>
    <!-- t2 -->
    <g
       id="node4"
       class="node">
      <title
         id="title6">t2</title>
      <polygon
         fill="none"
         stroke="#000000"
         points="185.2,-56 219.2,-56 219.2,-84.8 185.2,-84.8 "
         id="polygon6" />
      <text
         text-anchor="middle"
         x="202.2"
         y="-65.730003"
         font-family="Times, serif"
         font-size="14px"
         id="text6">T2</text>
    </g>
    <!-- p2&#45;&gt;t2 -->
    <g
       id="edge3"
       class="edge">
      <title
         id="title7">p2-&gt;t2</title>
      <path
         fill="none"
         stroke="#000000"
         d="m 148.52,-43.12 c 6.93,-3.59 16.83,-8.72 26.18,-13.56"
         id="path7" />
      <polygon
         fill="#000000"
         stroke="#000000"
         points="173,-59.74 183.49,-61.23 176.22,-53.52 "
         id="polygon7" />
    </g>
    <!-- t -->
    <g
       id="node5"
       class="node">
      <title
         id="title8">t</title>
      <polygon
         fill="none"
         stroke="#000000"
         points="187.8,0 216.6,0 216.6,-28.8 187.8,-28.8 "
         id="polygon8" />
      <text
         text-anchor="middle"
         x="202.2"
         y="-9.7200003"
         font-family="Times, serif"
         font-size="14px"
         id="text8">I</text>
    </g>
    <!-- p2&#45;&gt;t -->
    <g
       id="edge6"
       class="edge">
      <title
         id="title9">p2-&gt;t</title>
      <path
         fill="none"
         stroke="#000000"
         d="m 149.06,-34.65 c 8.06,3.13 19.86,7.71 30.2,11.73"
         id="path9" />
      <circle
         fill="#000000"
         stroke="#000000"
         cx="183.28999"
         cy="-21.360001"
         id="ellipse9"
         r="4" />
    </g>
    <!-- t1&#45;&gt;p2 -->
    <g
       id="edge2"
       class="edge">
      <title
         id="title10">t1-&gt;p2</title>
      <path
         fill="none"
         stroke="#000000"
         d="m 91.84,-38.4 c 7.41,0 16.3,0 24.24,0"
         id="path10" />
      <polygon
         fill="#000000"
         stroke="#000000"
         points="115.94,-41.9 125.94,-38.4 115.94,-34.9 "
         id="polygon10" />
    </g>
    <!-- t2&#45;&gt;p1 -->
    <g
       id="edge4"
       class="edge">
      <title
         id="title11">t2-&gt;p1</title>
      <path
         fill="none"
         stroke="#000000"
         d="m 184.92,-71.47 c -26.99,-1.31 -82.47,-2.05 -127.32,10.07 -9.45,2.55 -19.23,7.16 -27.32,11.58"
         id="path11" />
      <polygon
         fill="#000000"
         stroke="#000000"
         points="32.2,-46.89 21.8,-44.87 28.68,-52.93 "
         id="polygon11" />
    </g>
    <!-- t&#45;&gt;p1 -->
    <g
       id="edge5"
       class="edge">
      <title
         id="title12">t-&gt;p1</title>
      <path
         fill="none"
         stroke="#000000"
         d="M 176.4,-11.2 C 147.44,-8.23 98.32,-5.6 57.6,-15.4 48.08,-17.69 38.29,-22.26 30.21,-26.72"
         id="path12" />
      <polygon
         fill="#000000"
         stroke="#000000"
         points="175.65,-14.64 185.98,-12.29 176.44,-7.68 "
         id="polygon12" />
      <polygon
         fill="#000000"
         stroke="#000000"
         points="28.56,-23.64 21.75,-31.75 32.14,-29.65 "
         id="polygon13" />
    </g>
  </g>
</svg>
