<?xml version="1.0" encoding="UTF-8" standalone="no"?>
<!-- Generated by graphviz version 12.1.2 (0)
 -->

<!-- Title: G Pages: 1 -->

<svg
   width="199.46626pt"
   height="100.65052pt"
   viewBox="72 72 152.2 68.777856"
   version="1.1"
   id="svg10"
   xmlns="http://www.w3.org/2000/svg"
   xmlns:svg="http://www.w3.org/2000/svg">
  <defs
     id="defs10" />
  <g
     id="page0,1_graph0"
     class="graph"
     transform="translate(72.5,144.28893)">
    <title
       id="title1">G</title>
    <!-- p -->
    <g
       id="node1"
       class="node">
      <title
         id="title2">p</title>
      <circle
         fill="none"
         stroke="#000000"
         cx="75.599998"
         cy="-37.400002"
         id="ellipse2"
         r="10.8" />
    </g>
    <!-- tout1 -->
    <g
       id="node4"
       class="node">
      <title
         id="title3">tout1</title>
      <polygon
         fill="none"
         stroke="#000000"
         points="122.4,-47 151.2,-47 151.2,-75.8 122.4,-75.8 "
         id="polygon3" />
    </g>
    <!-- p&#45;&gt;tout1 -->
    <g
       id="edge2"
       class="edge">
      <title
         id="title4">p-&gt;tout1</title>
      <path
         fill="none"
         stroke="#000000"
         d="m 86.11,-41.26 c 6.97,-2.82 16.76,-6.79 25.8,-10.46"
         id="path4" />
      <polygon
         fill="#000000"
         stroke="#000000"
         points="110.36,-54.86 120.94,-55.38 112.99,-48.37 "
         id="polygon4" />
    </g>
    <!-- tout2 -->
    <g
       id="node5"
       class="node">
      <title
         id="title5">tout2</title>
      <polygon
         fill="none"
         stroke="#000000"
         points="122.4,0 151.2,0 151.2,-28.8 122.4,-28.8 "
         id="polygon5" />
    </g>
    <!-- p&#45;&gt;tout2 -->
    <g
       id="edge4"
       class="edge">
      <title
         id="title6">p-&gt;tout2</title>
      <path
         fill="none"
         stroke="#000000"
         d="m 86.11,-33.7 c 6.9,2.67 16.54,6.42 25.51,9.9"
         id="path6" />
      <polygon
         fill="#000000"
         stroke="#000000"
         points="112.88,-27.06 120.93,-20.18 110.34,-20.54 "
         id="polygon6" />
    </g>
    <!-- tin1 -->
    <g
       id="node2"
       class="node">
      <title
         id="title7">tin1</title>
      <polygon
         fill="none"
         stroke="#000000"
         points="0,-47 28.8,-47 28.8,-75.8 0,-75.8 "
         id="polygon7" />
    </g>
    <!-- tin1&#45;&gt;p -->
    <g
       id="edge1"
       class="edge">
      <title
         id="title8">tin1-&gt;p</title>
      <path
         fill="none"
         stroke="#000000"
         d="m 29.13,-55.83 c 7.61,3.08 17.2,6.97 25.62,10.38"
         id="path8" />
      <polygon
         fill="#000000"
         stroke="#000000"
         points="55.83,-48.79 63.78,-41.78 53.2,-42.3 "
         id="polygon8" />
    </g>
    <!-- tin2 -->
    <g
       id="node3"
       class="node">
      <title
         id="title9">tin2</title>
      <polygon
         fill="none"
         stroke="#000000"
         points="0,0 28.8,0 28.8,-28.8 0,-28.8 "
         id="polygon9" />
    </g>
    <!-- tin2&#45;&gt;p -->
    <g
       id="edge3"
       class="edge">
      <title
         id="title10">tin2-&gt;p</title>
      <path
         fill="none"
         stroke="#000000"
         d="m 29.13,-19.73 c 7.52,-2.93 16.99,-6.6 25.33,-9.84"
         id="path10" />
      <polygon
         fill="#000000"
         stroke="#000000"
         points="53.19,-32.84 63.78,-33.19 55.72,-26.31 "
         id="polygon10" />
    </g>
  </g>
</svg>
